<?xml version="1.0" standalone="no"?>
<!DOCTYPE svg PUBLIC "-//W3C//DTD SVG 20010904//EN"
 "http://www.w3.org/TR/2001/REC-SVG-20010904/DTD/svg10.dtd">
<svg version="1.0" xmlns="http://www.w3.org/2000/svg"
 width="512.000000pt" height="512.000000pt" viewBox="0 0 512.000000 512.000000"
 preserveAspectRatio="xMidYMid meet">

<g transform="translate(0.000000,512.000000) scale(0.100000,-0.100000)"
fill="#000000" stroke="none">
<path d="M707 5110 c-224 -38 -422 -162 -552 -345 -57 -81 -89 -147 -122 -252
l-28 -88 0 -1865 0 -1865 28 -88 c46 -147 107 -250 210 -356 101 -104 214
-171 364 -218 l88 -28 1865 0 1865 0 88 28 c147 46 250 107 356 210 104 101
171 214 218 364 l28 88 0 1865 0 1865 -28 88 c-47 150 -114 263 -218 364 -106
103 -209 164 -356 210 l-88 28 -1835 1 c-1009 1 -1857 -2 -1883 -6z m3723
-346 c99 -38 143 -66 206 -128 63 -63 97 -120 130 -216 18 -53 19 -117 19
-1860 0 -1743 -1 -1807 -19 -1860 -33 -96 -67 -153 -130 -216 -63 -63 -120
-97 -216 -130 -53 -18 -117 -19 -1860 -19 -1743 0 -1807 1 -1860 19 -96 33
-153 67 -216 130 -63 63 -97 120 -130 216 -18 53 -19 117 -19 1860 0 1743 1
1807 19 1860 70 204 219 333 416 360 30 4 854 7 1830 6 l1775 -1 55 -21z"/>
<path d="M1170 4394 c-121 -20 -216 -68 -296 -148 -99 -99 -147 -214 -147
-351 -1 -134 49 -253 147 -351 110 -110 195 -140 436 -154 195 -11 319 -28
460 -66 758 -200 1354 -796 1554 -1554 38 -141 55 -265 66 -460 14 -241 44
-326 154 -436 98 -98 217 -148 351 -147 224 0 412 144 483 367 12 39 16 86 14
195 -20 1504 -1140 2807 -2632 3061 -176 30 -520 55 -590 44z m315 -344 c918
-86 1728 -607 2200 -1413 228 -390 366 -882 369 -1309 1 -153 -1 -168 -20
-194 -33 -45 -69 -66 -121 -71 -63 -6 -112 14 -149 62 -26 35 -28 45 -36 179
-32 561 -190 1005 -512 1436 -91 122 -354 385 -476 476 -431 322 -875 480
-1436 512 -134 8 -144 10 -179 36 -99 76 -82 232 30 282 37 16 179 18 330 4z"/>
<path d="M1095 3042 c-92 -28 -156 -65 -217 -125 -281 -277 -154 -742 229
-841 34 -9 86 -16 116 -16 83 0 220 -27 306 -60 210 -81 395 -269 476 -483 29
-78 55 -216 55 -294 0 -122 56 -256 143 -345 278 -282 741 -154 842 233 29
107 7 384 -46 579 -143 532 -518 978 -1009 1199 -246 111 -437 157 -700 166
-112 4 -145 2 -195 -13z m340 -333 c614 -79 1135 -568 1259 -1182 22 -104 37
-295 27 -338 -25 -109 -145 -162 -243 -107 -62 35 -78 71 -88 200 -11 138 -24
207 -57 306 -116 349 -396 629 -745 745 -99 33 -168 46 -306 57 -129 10 -165
26 -200 88 -54 96 -2 218 103 243 34 8 131 3 250 -12z"/>
<path d="M1165 1719 c-246 -26 -439 -244 -438 -494 0 -137 48 -252 147 -351
99 -99 214 -147 351 -147 134 -1 253 49 351 147 99 99 145 209 145 346 0 125
-28 207 -103 308 -101 136 -276 209 -453 191z m158 -362 c73 -56 88 -160 32
-233 -88 -115 -276 -65 -292 79 -9 78 20 133 92 172 44 24 124 15 168 -18z"/>
</g>
</svg>
