<?xml version="1.0" standalone="no"?>
<!DOCTYPE svg PUBLIC "-//W3C//DTD SVG 20010904//EN"
 "http://www.w3.org/TR/2001/REC-SVG-20010904/DTD/svg10.dtd">
<svg version="1.0" xmlns="http://www.w3.org/2000/svg"
 width="512.000000pt" height="512.000000pt" viewBox="0 0 512.000000 512.000000"
 preserveAspectRatio="xMidYMid meet">

<g transform="translate(0.000000,512.000000) scale(0.100000,-0.100000)"
fill="#000000" stroke="none">
<path d="M707 5110 c-224 -38 -422 -162 -552 -345 -57 -81 -89 -147 -122 -252
l-28 -88 0 -1865 0 -1865 28 -88 c46 -147 107 -250 210 -356 101 -104 214
-171 364 -218 l88 -28 1865 0 1865 0 88 28 c147 46 250 107 356 210 104 101
171 214 218 364 l28 88 0 1865 0 1865 -28 88 c-47 150 -114 263 -218 364 -106
103 -209 164 -356 210 l-88 28 -1835 1 c-1009 1 -1857 -2 -1883 -6z m898 -905
c843 -111 1595 -567 2080 -1260 340 -487 535 -1076 539 -1635 1 -159 0 -167
-25 -221 -34 -73 -96 -134 -168 -167 -79 -37 -192 -38 -271 -1 -62 29 -132 95
-160 148 -25 50 -40 130 -40 210 0 195 -47 463 -120 681 -235 707 -783 1251
-1495 1485 -206 68 -478 115 -666 115 -80 0 -160 15 -210 40 -53 28 -119 98
-148 160 -37 79 -36 192 1 271 43 94 127 164 225 189 51 13 309 4 458 -15z
m-137 -1331 c379 -60 700 -226 957 -495 166 -174 286 -364 365 -581 92 -250
128 -563 79 -692 -54 -145 -219 -239 -365 -208 -80 16 -140 50 -190 105 -60
66 -80 127 -93 282 -13 160 -37 251 -101 380 -97 197 -258 358 -455 455 -129
64 -220 88 -380 101 -149 13 -212 33 -274 86 -54 46 -85 95 -107 169 -44 154
47 334 199 393 66 25 225 28 365 5z m-65 -1184 c105 -40 218 -141 270 -245 51
-101 63 -264 29 -365 -33 -94 -62 -142 -126 -206 -98 -98 -217 -148 -351 -147
-137 0 -252 48 -351 147 -190 190 -199 484 -20 683 138 153 354 206 549 133z"/>
</g>
</svg>
